<?xml version="1.0" encoding="utf-8"?>
<!-- Generator: Adobe Illustrator 22.1.0, SVG Export Plug-In . SVG Version: 6.00 Build 0)  -->
<svg version="1.1" id="レイヤー_1" xmlns="http://www.w3.org/2000/svg" xmlns:xlink="http://www.w3.org/1999/xlink" x="0px"
	 y="0px" viewBox="0 0 32 20" style="enable-background:new 0 0 32 20;" xml:space="preserve">
<style type="text/css">
	.st0{fill:#FCFAF2;}
</style>
<title>mark</title>
<desc>Created with Sketch.</desc>
<g id="Speaker-Deck-Home" transform="translate(-41.000000, -25.000000)">
	<path id="mark" class="st0" d="M54.4,37.5h-7.1c-3.5,0-6.2-2.8-6.2-6.2s2.8-6.2,6.2-6.2h8.3c1.4,0,2.5,1.1,2.5,2.5S56.9,30,55.6,30
		h-8.4c-0.7,0-1.2,0.6-1.2,1.2s0.6,1.2,1.2,1.2h7.1c3.5,0,6.2,2.8,6.2,6.2S57.7,45,54.2,45H43.5c-1.4,0-2.5-1.1-2.5-2.5
		s1.1-2.5,2.5-2.5h10.9c0.7,0,1.2-0.6,1.2-1.2S55.1,37.5,54.4,37.5z M59.6,45c1.7-1.1,2.9-2.9,3.2-5h4c0.7,0,1.2-0.6,1.2-1.2v-7.5
		c0-0.7-0.6-1.2-1.2-1.2h-7.3c0.6-0.7,0.9-1.5,0.9-2.5s-0.4-1.8-0.9-2.5h8.6c2.7,0,4.9,2.2,4.9,5v10c0,2.8-2.2,5-4.9,5H59.6z"/>
</g>
</svg>
